<svg width="33" height="33" viewBox="0 0 33 33" fill="none" xmlns="http://www.w3.org/2000/svg">
<path fill-rule="evenodd" clip-rule="evenodd" d="M32.6667 16.002C32.6667 24.8385 25.5032 32.002 16.6667 32.002C7.83013 32.002 0.666687 24.8385 0.666687 16.002C0.666687 7.1654 7.83013 0.00195312 16.6667 0.00195312C25.5032 0.00195312 32.6667 7.1654 32.6667 16.002ZM29.111 16.0018C29.111 22.8747 23.5394 28.4462 16.6665 28.4462C14.1162 28.4462 11.745 27.679 9.77118 26.3628L27.0276 9.10645C28.3438 11.0802 29.111 13.4514 29.111 16.0018ZM24.6509 6.456C22.4899 4.64661 19.7054 3.55735 16.6665 3.55735C9.79365 3.55735 4.22208 9.12892 4.22208 16.0018C4.22208 19.0407 5.31135 21.8252 7.12073 23.9861L24.6509 6.456Z" fill="#2174EF"/>
</svg>
