<svg width="376" height="370" viewBox="0 0 376 370" fill="none" xmlns="http://www.w3.org/2000/svg">
<path d="M307.358 330.633C373.018 295.017 325.55 216.309 365.415 185.259C388.21 167.504 380.577 81.8778 278.125 79.9321C95.9092 -109.489 -71.8008 76.2806 31.7093 239.14C111.294 364.356 272.597 349.489 307.358 330.633Z" fill="#EDF2FC"/>
<rect x="107.428" y="93.8047" width="195.616" height="196.418" rx="19" fill="white"/>
<g filter="url(#filter0_d)">
<rect x="71.3514" y="36.8848" width="204.435" height="270.175" rx="24" fill="white"/>
</g>
<rect x="102.618" y="115.666" width="131.571" height="5.8291" rx="2.91455" fill="#EDF2FB"/>
<rect x="102.618" y="78.7148" width="131.571" height="5.8291" rx="2.91455" fill="#EDF2FB"/>
<rect x="102.618" y="78.7148" width="131.571" height="5.8291" rx="2.91455" fill="#EDF2FB"/>
<rect x="140.921" y="91.2051" width="54.9601" height="5.8291" rx="2.91455" fill="#F2F5F9"/>
<rect x="140.921" y="91.2051" width="54.9601" height="5.8291" rx="2.91455" fill="#F2F5F9"/>
<rect x="140.921" y="128.156" width="54.9601" height="5.8291" rx="2.91455" fill="#F2F5F9"/>
<rect x="107.428" y="265.586" width="131.571" height="5.8291" rx="2.91455" fill="#EDF2FB"/>
<rect x="107.429" y="228.635" width="131.571" height="5.8291" rx="2.91455" fill="#EDF2FB"/>
<rect x="107.429" y="228.635" width="131.571" height="5.8291" rx="2.91455" fill="#EDF2FB"/>
<rect x="145.731" y="241.125" width="54.9601" height="5.8291" rx="2.91455" fill="#F2F5F9"/>
<rect x="145.731" y="241.125" width="54.9601" height="5.8291" rx="2.91455" fill="#F2F5F9"/>
<rect x="145.731" y="278.076" width="54.9601" height="5.8291" rx="2.91455" fill="#F2F5F9"/>
<rect x="132" y="120.998" width="83.2729" height="83.2729" rx="41.6364" fill="#2174EF"/>
<path d="M157.919 154.018V156.608H162.455V158.428H157.919V161.998H155.651V152.198H163.057V154.018H157.919ZM170.837 161.998L168.947 159.268H168.835H166.861V161.998H164.593V152.198H168.835C169.703 152.198 170.454 152.343 171.089 152.632C171.733 152.921 172.227 153.332 172.573 153.864C172.918 154.396 173.091 155.026 173.091 155.754C173.091 156.482 172.913 157.112 172.559 157.644C172.213 158.167 171.719 158.568 171.075 158.848L173.273 161.998H170.837ZM170.795 155.754C170.795 155.203 170.617 154.783 170.263 154.494C169.908 154.195 169.39 154.046 168.709 154.046H166.861V157.462H168.709C169.39 157.462 169.908 157.313 170.263 157.014C170.617 156.715 170.795 156.295 170.795 155.754ZM182.476 160.178V161.998H174.888V152.198H182.294V154.018H177.142V156.146H181.692V157.91H177.142V160.178H182.476ZM191.868 160.178V161.998H184.28V152.198H191.686V154.018H186.534V156.146H191.084V157.91H186.534V160.178H191.868ZM158.616 169.308C158.042 169.308 157.756 169.618 157.756 170.238V170.698H159.296V171.488H157.776V175.998H156.816V171.488H155.916V170.698H156.816V170.228C156.816 169.701 156.969 169.285 157.276 168.978C157.582 168.671 158.012 168.518 158.566 168.518C158.779 168.518 158.979 168.545 159.166 168.598C159.352 168.651 159.512 168.728 159.646 168.828L159.356 169.558C159.136 169.391 158.889 169.308 158.616 169.308ZM162.393 176.058C161.866 176.058 161.393 175.941 160.973 175.708C160.553 175.475 160.223 175.155 159.983 174.748C159.749 174.335 159.633 173.868 159.633 173.348C159.633 172.828 159.749 172.365 159.983 171.958C160.223 171.545 160.553 171.225 160.973 170.998C161.393 170.765 161.866 170.648 162.393 170.648C162.919 170.648 163.389 170.765 163.803 170.998C164.223 171.225 164.549 171.545 164.783 171.958C165.023 172.365 165.143 172.828 165.143 173.348C165.143 173.868 165.023 174.335 164.783 174.748C164.549 175.155 164.223 175.475 163.803 175.708C163.389 175.941 162.919 176.058 162.393 176.058ZM162.393 175.218C162.733 175.218 163.036 175.141 163.303 174.988C163.576 174.828 163.789 174.608 163.943 174.328C164.096 174.041 164.173 173.715 164.173 173.348C164.173 172.981 164.096 172.658 163.943 172.378C163.789 172.091 163.576 171.871 163.303 171.718C163.036 171.565 162.733 171.488 162.393 171.488C162.053 171.488 161.746 171.565 161.473 171.718C161.206 171.871 160.993 172.091 160.833 172.378C160.679 172.658 160.603 172.981 160.603 173.348C160.603 173.715 160.679 174.041 160.833 174.328C160.993 174.608 161.206 174.828 161.473 174.988C161.746 175.141 162.053 175.218 162.393 175.218ZM167.39 171.588C167.557 171.281 167.804 171.048 168.13 170.888C168.457 170.728 168.854 170.648 169.32 170.648V171.578C169.267 171.571 169.194 171.568 169.1 171.568C168.58 171.568 168.17 171.725 167.87 172.038C167.577 172.345 167.43 172.785 167.43 173.358V175.998H166.47V170.698H167.39V171.588ZM175.245 173.378C175.245 173.451 175.238 173.548 175.225 173.668H170.925C170.985 174.135 171.188 174.511 171.535 174.798C171.888 175.078 172.325 175.218 172.845 175.218C173.478 175.218 173.988 175.005 174.375 174.578L174.905 175.198C174.665 175.478 174.365 175.691 174.005 175.838C173.652 175.985 173.255 176.058 172.815 176.058C172.255 176.058 171.758 175.945 171.325 175.718C170.892 175.485 170.555 175.161 170.315 174.748C170.082 174.335 169.965 173.868 169.965 173.348C169.965 172.835 170.078 172.371 170.305 171.958C170.538 171.545 170.855 171.225 171.255 170.998C171.662 170.765 172.118 170.648 172.625 170.648C173.132 170.648 173.582 170.765 173.975 170.998C174.375 171.225 174.685 171.545 174.905 171.958C175.132 172.371 175.245 172.845 175.245 173.378ZM172.625 171.458C172.165 171.458 171.778 171.598 171.465 171.878C171.158 172.158 170.978 172.525 170.925 172.978H174.325C174.272 172.531 174.088 172.168 173.775 171.888C173.468 171.601 173.085 171.458 172.625 171.458ZM181.17 170.698L178.85 175.998H177.87L175.55 170.698H176.55L178.37 174.948L180.23 170.698H181.17ZM186.71 173.378C186.71 173.451 186.703 173.548 186.69 173.668H182.39C182.45 174.135 182.653 174.511 183 174.798C183.353 175.078 183.79 175.218 184.31 175.218C184.943 175.218 185.453 175.005 185.84 174.578L186.37 175.198C186.13 175.478 185.83 175.691 185.47 175.838C185.116 175.985 184.72 176.058 184.28 176.058C183.72 176.058 183.223 175.945 182.79 175.718C182.356 175.485 182.02 175.161 181.78 174.748C181.546 174.335 181.43 173.868 181.43 173.348C181.43 172.835 181.543 172.371 181.77 171.958C182.003 171.545 182.32 171.225 182.72 170.998C183.126 170.765 183.583 170.648 184.09 170.648C184.596 170.648 185.046 170.765 185.44 170.998C185.84 171.225 186.15 171.545 186.37 171.958C186.596 172.371 186.71 172.845 186.71 173.378ZM184.09 171.458C183.63 171.458 183.243 171.598 182.93 171.878C182.623 172.158 182.443 172.525 182.39 172.978H185.79C185.736 172.531 185.553 172.168 185.24 171.888C184.933 171.601 184.55 171.458 184.09 171.458ZM188.963 171.588C189.129 171.281 189.376 171.048 189.703 170.888C190.029 170.728 190.426 170.648 190.893 170.648V171.578C190.839 171.571 190.766 171.568 190.673 171.568C190.153 171.568 189.743 171.725 189.443 172.038C189.149 172.345 189.003 172.785 189.003 173.358V175.998H188.043V170.698H188.963V171.588Z" fill="white"/>
<path d="M217.165 37.0702H223.333H223.827V32.4902L217.165 37.0702Z" fill="#D98300"/>
<path d="M222.993 34.0742C222.993 32.9697 223.888 32.0742 224.993 32.0742H253.469C254.574 32.0742 255.469 32.9696 255.469 34.0742V74.7074C255.469 76.1772 253.937 77.145 252.61 76.5133L240.091 70.5546C239.547 70.2958 238.915 70.2958 238.371 70.5546L225.852 76.5133C224.525 77.145 222.993 76.1772 222.993 74.7074V34.0742Z" fill="#FFA623"/>
<defs>
<filter id="filter0_d" x="46.3514" y="30.8848" width="272.435" height="338.175" filterUnits="userSpaceOnUse" color-interpolation-filters="sRGB">
<feFlood flood-opacity="0" result="BackgroundImageFix"/>
<feColorMatrix in="SourceAlpha" type="matrix" values="0 0 0 0 0 0 0 0 0 0 0 0 0 0 0 0 0 0 127 0"/>
<feOffset dx="9" dy="28"/>
<feGaussianBlur stdDeviation="17"/>
<feColorMatrix type="matrix" values="0 0 0 0 0.606181 0 0 0 0 0.754281 0 0 0 0 0.845833 0 0 0 0.18 0"/>
<feBlend mode="normal" in2="BackgroundImageFix" result="effect1_dropShadow"/>
<feBlend mode="normal" in="SourceGraphic" in2="effect1_dropShadow" result="shape"/>
</filter>
</defs>
</svg>
