<svg width="33" height="33" viewBox="0 0 33 33" fill="none" xmlns="http://www.w3.org/2000/svg">
<g clip-path="url(#clip0)">
<path d="M28.4584 17.377C29.0107 17.377 29.4584 17.8247 29.4584 18.377V31.5019C29.4584 32.0542 29.0107 32.5019 28.4584 32.5019H4.20843C3.65615 32.5019 3.20844 32.0542 3.20844 31.5019V18.377C3.20844 17.8247 3.65615 17.377 4.20844 17.377H11.5834C12.1357 17.377 12.5834 17.8247 12.5834 18.377V21.9478C12.5834 22.7465 13.4736 23.2229 14.1381 22.7799L15.7787 21.6861C16.1146 21.4622 16.5522 21.4622 16.8881 21.6861L18.5287 22.7799C19.1933 23.2229 20.0834 22.7465 20.0834 21.9478V18.377C20.0834 17.8247 20.5312 17.377 21.0834 17.377H28.4584Z" fill="#2174EF"/>
<path d="M1.33344 10.877C1.33344 10.3247 1.78115 9.87695 2.33344 9.87695H11.5834C12.1357 9.87695 12.5834 10.3247 12.5834 10.877V14.502C12.5834 15.0542 12.1357 15.502 11.5834 15.502H2.33343C1.78115 15.502 1.33344 15.0542 1.33344 14.502V10.877Z" fill="#2174EF"/>
<path d="M20.0834 10.877C20.0834 10.3247 20.5312 9.87695 21.0834 9.87695H30.3334C30.8857 9.87695 31.3334 10.3247 31.3334 10.877V14.502C31.3334 15.0542 30.8857 15.502 30.3334 15.502H21.0834C20.5312 15.502 20.0834 15.0542 20.0834 14.502V10.877Z" fill="#2174EF"/>
<path d="M29.4584 5.18945C29.4584 6.24383 29.1084 7.2182 28.5184 8.00195H20.0834V3.6682C21.6197 1.56445 23.2459 0.501953 24.9409 0.501953H24.9634C27.6659 0.517578 29.4584 3.3332 29.4584 5.18945Z" fill="#2174EF"/>
<path d="M12.5834 3.66766V8.00203H4.14844C3.55844 7.21828 3.20844 6.24391 3.20844 5.18953C3.20844 3.33328 5.00093 0.517657 7.70343 0.502032C9.40593 0.491407 11.0403 1.55453 12.5834 3.66766Z" fill="#2174EF"/>
<path d="M14.4584 6.12695H18.2084V20.3128L16.3334 19.0628L14.4584 20.3128V6.12695Z" fill="#2174EF"/>
</g>
<defs>
<clipPath id="clip0">
<rect width="32" height="32" fill="white" transform="translate(0.333344 0.501953)"/>
</clipPath>
</defs>
</svg>
