<svg width="163" height="81" viewBox="0 0 163 81" fill="none" xmlns="http://www.w3.org/2000/svg">
<path fill-rule="evenodd" clip-rule="evenodd" d="M44.1334 4.53764C54.4706 3.47706 65.824 3.37375 73.5636 10.2736C81.5728 17.4138 84.5024 28.9103 83.4122 39.5549C82.413 49.3119 75.3322 56.7345 68.1206 63.4207C61.2498 69.7909 53.5148 75.5384 44.1334 75.972C34.3514 76.4241 25.2975 72.0243 17.809 65.7461C9.48887 58.7707 0.177311 50.3677 0.695594 39.5549C1.20522 28.9227 2.61625 21.8896 10.9286 15.1886C18.0494 9.44822 35.0169 5.47297 44.1334 4.53764Z" fill="#F3F7FD"/>
<path d="M35.6596 27.1932C35.8662 27.149 36.0814 27.168 36.2771 27.2479C36.4159 27.3091 36.5384 27.4021 36.6345 27.5195C36.7306 27.6368 36.7977 27.7752 36.8303 27.9233C36.8651 28.1326 36.8371 28.3475 36.7499 28.5409C36.6534 28.7327 36.4956 28.8868 36.3016 28.9789C36.1076 29.0709 35.8885 29.0956 35.6789 29.0491C35.4674 28.9983 35.2793 28.8776 35.145 28.7066C35.0107 28.5355 34.9382 28.3241 34.9391 28.1067C34.9435 27.8968 35.0162 27.694 35.1462 27.5291C35.2762 27.3643 35.4564 27.2464 35.6596 27.1932Z" fill="#F2F5F9"/>
<path d="M47.885 27.1921C48.0933 27.1484 48.31 27.1697 48.5057 27.2532C48.6631 27.3263 48.7978 27.4404 48.8957 27.5836C48.9936 27.7268 49.0511 27.8938 49.0622 28.0669C49.0657 28.2011 49.0421 28.3346 48.9929 28.4595C48.9438 28.5843 48.8699 28.6981 48.7759 28.7938C48.6681 28.9042 48.5349 28.9865 48.3879 29.0334C48.2409 29.0802 48.0846 29.0903 47.9328 29.0627C47.781 29.0351 47.6383 28.9706 47.5172 28.8749C47.3962 28.7792 47.3004 28.6553 47.2385 28.514C47.1621 28.3244 47.1376 28.1179 47.1677 27.9157C47.2078 27.7402 47.2963 27.5794 47.423 27.4515C47.5498 27.3236 47.7098 27.2337 47.885 27.1921Z" fill="#F2F5F9"/>
<path d="M46.6594 41.6445H48.11C48.11 43.5744 48.11 45.5042 48.11 47.4115H46.6658C46.6594 45.4785 46.6658 43.5679 46.6594 41.6445Z" fill="#F2F5F9"/>
<path d="M30.9862 26.3533C31.2934 26.2351 31.6227 26.1857 31.9511 26.2086H52.2722C52.5297 26.2085 52.7847 26.26 53.022 26.3599C53.2593 26.4599 53.4743 26.6064 53.6541 26.7907C53.834 26.9751 53.9751 27.1936 54.0692 27.4333C54.1633 27.673 54.2084 27.9292 54.202 28.1866C54.202 28.8299 54.202 29.5021 54.202 30.1615C53.9818 30.0857 53.7498 30.0497 53.5169 30.0554H30.523C30.2785 30.049 30.0348 30.0849 29.8026 30.1615C29.8026 29.4764 29.8026 28.7945 29.8026 28.1094C29.8072 27.7332 29.9217 27.3665 30.132 27.0545C30.3422 26.7425 30.6392 26.4988 30.9862 26.3533ZM35.6628 27.1928C35.458 27.2449 35.2759 27.3628 35.1446 27.5284C35.0133 27.694 34.9399 27.8981 34.9359 28.1094C34.935 28.3269 35.0075 28.5383 35.1418 28.7094C35.2761 28.8804 35.4642 29.0011 35.6757 29.0518C35.8853 29.0984 36.1044 29.0737 36.2984 28.9816C36.4924 28.8896 36.6502 28.7355 36.7467 28.5437C36.8339 28.3503 36.8619 28.1354 36.8271 27.9261C36.7945 27.778 36.7274 27.6396 36.6313 27.5222C36.5352 27.4049 36.4127 27.3118 36.2739 27.2507C36.0795 27.1704 35.8655 27.1502 35.6596 27.1928H35.6628ZM47.885 27.1928C47.71 27.2352 47.5504 27.3258 47.4242 27.4543C47.2981 27.5828 47.2103 27.744 47.171 27.9197C47.1409 28.1218 47.1653 28.3284 47.2418 28.5179C47.3037 28.6592 47.3994 28.7832 47.5205 28.8788C47.6416 28.9745 47.7843 29.039 47.9361 29.0666C48.0879 29.0943 48.2441 29.0842 48.3912 29.0373C48.5382 28.9904 48.6714 28.9082 48.7792 28.7978C48.8732 28.702 48.947 28.5883 48.9962 28.4634C49.0454 28.3385 49.0689 28.205 49.0654 28.0709C49.0544 27.8977 48.9969 27.7308 48.899 27.5876C48.8011 27.4444 48.6663 27.3302 48.509 27.2571C48.3126 27.1719 48.0947 27.1494 47.885 27.1928Z" fill="#C7C7C7"/>
<path d="M47.7722 35.8774C47.8817 35.8399 47.9985 35.8289 48.1131 35.8452C48.1131 37.7751 48.1131 39.7049 48.1131 41.6347V41.6508H46.6625V41.6186C46.6625 40.2849 46.6625 38.9523 46.6625 37.6207C45.6976 37.9423 44.7327 38.2639 43.7678 38.5856C43.7678 38.1514 43.7678 37.7139 43.7678 37.2797C45.0994 36.8134 46.4245 36.3502 47.7722 35.8774Z" fill="#C7C7C7"/>
<path d="M35.9743 36.5684C36.5871 36.1105 37.326 35.8523 38.0906 35.8287C38.8478 35.7799 39.6034 35.9449 40.2714 36.3047C40.7918 36.6061 41.197 37.0724 41.4228 37.6299C41.6419 38.1865 41.7192 38.7888 41.648 39.3828C41.5546 39.8462 41.348 40.2793 41.0466 40.6435C40.7453 41.0077 40.3585 41.2917 39.9208 41.4702C40.0426 41.507 40.161 41.5543 40.2746 41.6117C40.2004 41.6263 40.1249 41.6328 40.0494 41.631C39.0427 41.631 38.036 41.631 37.0292 41.631C37.0292 41.4123 37.0292 41.1936 37.0292 40.9878C37.7561 40.9717 38.5216 41.0585 39.2003 40.7401C39.4785 40.6212 39.7213 40.4326 39.9055 40.1927C40.0897 39.9527 40.2091 39.6694 40.2521 39.3699C40.3531 38.7867 40.2388 38.1866 39.9304 37.6813C39.7897 37.4969 39.6132 37.3429 39.4114 37.2285C39.2097 37.1141 38.9869 37.0417 38.7564 37.0155C38.1348 36.8974 37.4914 37.0217 36.9585 37.3629C36.7108 37.5491 36.5123 37.7929 36.3801 38.0731C36.2478 38.3533 36.1858 38.6615 36.1994 38.9711C35.733 38.9711 35.2667 38.9711 34.8003 38.9711C34.8034 38.7142 34.8358 38.4584 34.8968 38.2088C35.0577 37.5548 35.438 36.9758 35.9743 36.5684Z" fill="#C7C7C7"/>
<path d="M29.8026 30.1616C30.0349 30.0849 30.2786 30.049 30.5231 30.0554H53.517C53.7498 30.0498 53.9818 30.0857 54.2021 30.1616C54.5366 30.2803 54.832 30.4891 55.0556 30.7649C55.2791 31.0407 55.4223 31.3728 55.4693 31.7247C55.3436 31.2278 55.036 30.7963 54.6073 30.5154C54.2933 30.3101 53.9274 30.1986 53.5524 30.1937C45.8631 30.1937 38.1738 30.1937 30.4845 30.1937C30.1939 30.1878 29.9057 30.2467 29.6408 30.3664C29.3759 30.486 29.1411 30.6633 28.9535 30.8852C28.7939 31.0889 28.6599 31.3114 28.5547 31.5478C28.6286 31.2301 28.7818 30.9363 29 30.6939C29.2183 30.4515 29.4944 30.2683 29.8026 30.1616Z" fill="#4483EF"/>
<path d="M46.6308 41.6172H46.6565V41.6333C46.6565 43.5631 46.6565 45.4929 46.6565 47.4002H48.1007C48.1007 45.4704 48.1007 43.5406 48.1007 41.6333V41.6172H48.1232C48.3374 41.6289 48.5522 41.6289 48.7664 41.6172C50.5783 41.6172 52.3892 41.6172 54.1989 41.6172C54.408 44.647 54.6042 47.6768 54.8132 50.7035C54.8609 51.0502 54.85 51.4024 54.7811 51.7456C54.7009 51.8512 54.6329 51.9656 54.5784 52.0865C54.4077 52.3658 54.1688 52.597 53.8841 52.7585C53.5994 52.92 53.2783 53.0064 52.951 53.0096C45.7248 53.0096 38.4998 53.0096 31.2758 53.0096C31.0484 53.0234 30.8202 53.0072 30.5971 52.9614C30.3454 52.9011 30.1081 52.7916 29.8989 52.6393C29.6897 52.4869 29.5127 52.2947 29.3781 52.0736C29.3305 51.971 29.2734 51.873 29.2076 51.7809C29.1398 51.3224 29.1398 50.8564 29.2076 50.3979C29.4071 47.4839 29.5968 44.5698 29.7962 41.6558C32.2042 41.6558 34.6122 41.6558 37.0202 41.6558C37.0202 41.7941 37.0202 41.9324 37.0202 42.0707C37.7825 42.0707 38.5834 41.9935 39.3039 42.2958C39.5488 42.3905 39.7694 42.5387 39.9497 42.7296C40.13 42.9204 40.2654 43.1492 40.346 43.3991C40.5149 43.963 40.498 44.5663 40.2977 45.1198C40.2009 45.3746 40.0462 45.6034 39.8458 45.7881C39.6454 45.9729 39.4048 46.1086 39.143 46.1845C38.5035 46.3801 37.8159 46.3483 37.1971 46.0944C36.9587 45.9938 36.7451 45.8424 36.5712 45.6507C36.3974 45.4591 36.2674 45.2318 36.1904 44.9847C36.1247 44.7645 36.0911 44.5359 36.0907 44.3061H34.7077C34.6932 44.9226 34.8743 45.5279 35.2251 46.0352C35.5758 46.5425 36.0781 46.9258 36.66 47.1301C37.415 47.4137 38.2312 47.4946 39.0273 47.3649C39.81 47.2584 40.5323 46.8859 41.0729 46.3099C41.5436 45.7647 41.8127 45.0743 41.8352 44.3543C41.8982 43.666 41.7046 42.9787 41.2916 42.4245C41.0373 42.117 40.7261 41.8614 40.3749 41.6719C40.5409 41.6612 40.7074 41.6612 40.8735 41.6719H45.9907C46.203 41.6365 46.4249 41.6558 46.6308 41.6172Z" fill="#4483EF"/>
<path d="M28.9532 30.9048C29.1408 30.6829 29.3757 30.5056 29.6405 30.386C29.9054 30.2663 30.1936 30.2073 30.4842 30.2133C38.1735 30.2133 45.8628 30.2133 53.5521 30.2133C53.9272 30.2181 54.2931 30.3297 54.6071 30.5349C55.0357 30.8158 55.3434 31.2474 55.469 31.7443C55.4977 31.9179 55.4977 32.095 55.469 32.2686C55.0509 35.3981 54.6167 38.5244 54.205 41.654H48.9977C48.7082 41.654 48.4187 41.654 48.1293 41.654H48.1068C48.1068 39.7241 48.1068 37.7943 48.1068 35.8645C47.9922 35.8481 47.8753 35.8592 47.7658 35.8966C46.431 36.3695 45.093 36.8326 43.7582 37.3086C43.7582 37.7428 43.7582 38.1803 43.7582 38.6145C44.7231 38.2928 45.688 37.9712 46.653 37.6496C46.653 38.9833 46.653 40.3159 46.653 41.6475H46.6272C44.6073 41.6475 42.5874 41.6475 40.5676 41.6475C40.4688 41.6672 40.3672 41.6672 40.2684 41.6475C40.1549 41.5901 40.0365 41.5428 39.9146 41.506C40.3524 41.3275 40.7391 41.0435 41.0405 40.6793C41.3419 40.3151 41.5484 39.882 41.6418 39.4186C41.7131 38.8246 41.6357 38.2223 41.4167 37.6657C41.1909 37.1082 40.7857 36.6419 40.2652 36.3405C39.6027 35.9696 38.8493 35.7924 38.091 35.8291C37.3277 35.8489 36.5889 36.1027 35.9746 36.556C35.4377 36.9578 35.0542 37.5308 34.8874 38.1803C34.8265 38.4299 34.7941 38.6856 34.7909 38.9426C35.2573 38.9426 35.7237 38.9426 36.1901 38.9426C36.1764 38.633 36.2385 38.3248 36.3707 38.0446C36.503 37.7644 36.7015 37.5206 36.9491 37.3344C37.4821 36.9931 38.1254 36.8688 38.7471 36.987C38.9775 37.0131 39.2003 37.0856 39.4021 37.2C39.6038 37.3144 39.7804 37.4684 39.9211 37.6528C40.2295 38.158 40.3438 38.7581 40.2427 39.3414C40.1997 39.6408 40.0804 39.9242 39.8962 40.1641C39.712 40.4041 39.4691 40.5926 39.191 40.7116C38.5123 41.0332 37.7468 40.9399 37.0199 40.9592H37.0135C37.0135 41.1779 37.0135 41.3967 37.0135 41.6025C34.6033 41.6025 32.1943 41.6025 29.7863 41.6025C29.3746 38.5362 28.9607 35.471 28.5447 32.4069C28.4849 32.1183 28.4849 31.8206 28.5447 31.532C28.6555 31.3075 28.7927 31.0969 28.9532 30.9048Z" fill="#3664D0"/>
<path d="M29.2206 51.7845C29.2864 51.8765 29.3434 51.9745 29.3911 52.0772C29.5206 52.3025 29.6937 52.4999 29.9002 52.6578C30.1067 52.8157 30.3426 52.9311 30.594 52.997C30.8171 53.0429 31.0453 53.0591 31.2727 53.0453C38.4988 53.0453 45.7239 53.0453 52.9478 53.0453C53.2751 53.0421 53.5962 52.9556 53.8809 52.7942C54.1656 52.6327 54.4046 52.4014 54.5753 52.1222C54.6298 52.0012 54.6977 51.8869 54.778 51.7812C54.6914 52.0898 54.5293 52.3719 54.3063 52.6021C54.0834 52.8324 53.8067 53.0035 53.5011 53.1C53.1568 53.1883 52.8005 53.2198 52.4461 53.1932H31.3499C31.0674 53.2108 30.7839 53.1825 30.5104 53.1096C30.2017 53.0144 29.9218 52.8431 29.6964 52.6116C29.4711 52.3801 29.3075 52.0956 29.2206 51.7845Z" fill="#3664D0"/>
<path d="M143.961 13.2536C140.043 9.76012 136.413 6.67274 132.367 4.63394C128.242 2.55491 123.747 1.59183 118.12 2.16914C115.994 2.38728 113.481 2.50303 110.717 2.63038C110.56 2.63758 110.403 2.64482 110.245 2.65212C107.322 2.78719 104.162 2.94111 101.055 3.25165C94.962 3.86064 88.5709 5.10514 84.448 8.42882C75.2807 15.819 72.7196 28.7605 72.1982 39.6371C71.9043 45.7685 74.4124 51.1046 77.9322 55.7127C81.4378 60.3019 86.075 64.334 90.2966 67.8732C92.1126 69.3957 93.5015 70.7603 94.7513 71.9881L94.7904 72.0265L94.8112 72.047C96.0389 73.2531 97.2088 74.4025 98.4843 75.3329C101.243 77.3452 104.312 78.2072 109.584 77.9635C119.579 77.5016 132.141 72.3045 139.474 65.5065C140.941 64.1459 142.59 62.7534 144.336 61.2781C144.719 60.9548 145.107 60.6275 145.498 60.2956C147.652 58.4693 149.897 56.527 151.952 54.4699C156.015 50.4042 159.637 45.6071 160.218 39.9366C160.838 33.8826 158.716 28.9566 155.49 24.697C152.67 20.9738 148.901 17.6341 145.291 14.4347C144.845 14.039 144.401 13.6455 143.961 13.2536Z" fill="#F3F7FD" stroke="white" stroke-width="4"/>
<g clip-path="url(#clip0)">
<path d="M116.575 27.2031H118.262C118.262 27.9793 118.262 28.7525 118.262 29.5287C121.105 29.5287 123.948 29.5345 126.79 29.52C127.27 29.5403 127.799 29.5055 128.216 29.7991C128.509 30.2293 128.475 30.7758 128.494 31.27C128.48 36.3165 128.486 41.3601 128.489 46.4037C128.475 47.2496 128.565 48.113 128.392 48.9473C128.279 49.552 127.569 49.5665 127.094 49.5868C124.152 49.5956 121.207 49.581 118.262 49.5868C118.262 50.4589 118.262 51.331 118.262 52.2031H116.499C112.17 51.3979 107.834 50.6537 103.5 49.8775C103.5 43.0956 103.5 36.3136 103.5 29.5316C107.859 28.7555 112.219 27.9909 116.575 27.2031Z" fill="#207245"/>
<path d="M118.262 30.4004C121.386 30.4004 124.51 30.4004 127.634 30.4004C127.634 36.505 127.634 42.6097 127.634 48.7143C124.51 48.7143 121.386 48.7143 118.262 48.7143C118.262 48.1329 118.262 47.5516 118.262 46.9702C119.02 46.9702 119.776 46.9702 120.534 46.9702C120.534 46.2928 120.534 45.6126 120.534 44.9353C119.776 44.9353 119.02 44.9353 118.262 44.9353C118.262 44.5486 118.262 44.1591 118.262 43.7725C119.02 43.7725 119.776 43.7725 120.534 43.7725C120.534 43.0952 120.534 42.4149 120.534 41.7376C119.776 41.7376 119.02 41.7376 118.262 41.7376C118.262 41.351 118.262 40.9614 118.262 40.5748C119.02 40.5748 119.776 40.5748 120.534 40.5748C120.534 39.8975 120.534 39.2173 120.534 38.5399C119.776 38.5399 119.02 38.5399 118.262 38.5399C118.262 38.1533 118.262 37.7638 118.262 37.3771C119.02 37.3771 119.776 37.3771 120.534 37.3771C120.534 36.6998 120.534 36.0196 120.534 35.3423C119.776 35.3423 119.02 35.3423 118.262 35.3423C118.262 34.9556 118.262 34.5661 118.262 34.1795C119.02 34.1795 119.776 34.1795 120.534 34.1795C120.534 33.5021 120.534 32.8219 120.534 32.1446C119.776 32.1446 119.02 32.1446 118.262 32.1446C118.262 31.5632 118.262 30.9818 118.262 30.4004Z" fill="#F2F5F9"/>
<path d="M121.67 32.1445C122.996 32.1445 124.32 32.1445 125.646 32.1445C125.646 32.8219 125.646 33.5021 125.646 34.1794C124.32 34.1794 122.996 34.1794 121.67 34.1794C121.67 33.5021 121.67 32.8219 121.67 32.1445Z" fill="#207245"/>
<path d="M111.912 34.8692C112.554 34.8227 113.198 34.782 113.843 34.75C113.085 36.3401 112.324 37.9302 111.551 39.5145C112.332 41.1424 113.13 42.7587 113.914 44.3866C113.23 44.3459 112.548 44.3023 111.864 44.2529C111.381 43.0407 110.793 41.8692 110.446 40.6017C110.06 41.782 109.509 42.8953 109.066 44.0523C108.444 44.0436 107.822 44.0174 107.2 43.9913C107.93 42.5291 108.635 41.0552 109.387 39.6017C108.748 38.1047 108.047 36.6366 107.388 35.1483C108.013 35.1105 108.637 35.0727 109.262 35.0378C109.685 36.1744 110.148 37.2965 110.498 38.4622C110.872 37.2267 111.432 36.064 111.912 34.8692Z" fill="#F2F5F9"/>
<path d="M121.67 35.3418C122.996 35.3418 124.32 35.3418 125.646 35.3418C125.646 36.0191 125.646 36.6994 125.646 37.3767C124.32 37.3767 122.996 37.3767 121.67 37.3767C121.67 36.6994 121.67 36.0191 121.67 35.3418Z" fill="#207245"/>
<path d="M121.67 38.541C122.996 38.541 124.32 38.541 125.646 38.541C125.646 39.2183 125.646 39.8986 125.646 40.5759C124.32 40.5759 122.996 40.5759 121.67 40.5759C121.67 39.8986 121.67 39.2183 121.67 38.541Z" fill="#207245"/>
<path d="M121.67 41.7383C122.996 41.7383 124.32 41.7383 125.646 41.7383C125.646 42.4156 125.646 43.0958 125.646 43.7732C124.32 43.7732 122.996 43.7732 121.67 43.7732C121.67 43.0958 121.67 42.4156 121.67 41.7383Z" fill="#207245"/>
<path d="M121.67 44.9355C122.996 44.9355 124.32 44.9355 125.646 44.9355C125.646 45.6129 125.646 46.2931 125.646 46.9704C124.32 46.9704 122.996 46.9704 121.67 46.9704C121.67 46.2931 121.67 45.6129 121.67 44.9355Z" fill="#207245"/>
</g>
<defs>
<clipPath id="clip0">
<rect width="25" height="25" fill="white" transform="translate(103.5 27.2031)"/>
</clipPath>
</defs>
</svg>
