<svg width="172" height="44" viewBox="0 0 172 44" fill="none" xmlns="http://www.w3.org/2000/svg">
<path d="M35.842 20.594H34.6182H34.5183H33.1945H30.6594C30.6469 20.5443 30.6344 20.4946 30.6219 20.4325C29.8477 17.0287 26.8006 14.4944 23.1415 14.4944C19.4325 14.4944 16.348 17.1156 15.6236 20.5816H13.0885C13.8378 15.7367 18.0588 11.9975 23.1415 11.9975C27.45 11.9975 31.1464 14.6808 32.6201 18.4697H34.0187H35.3924C33.8064 13.2273 28.9236 9.38867 23.1415 9.38867C16.0857 9.38867 10.3536 15.0907 10.3536 22.1096C10.3536 22.4326 10.3661 22.7431 10.3911 23.0537H10.8906H11.7024H13.0261H15.5113H15.5362C16.0108 26.8178 19.2327 29.7371 23.1415 29.7371C27.0503 29.7371 30.2723 26.8178 30.7468 23.0537H33.257C32.7699 28.1843 28.424 32.2217 23.1415 32.2217C18.6083 32.2217 14.762 29.2527 13.4507 25.1656H12.077H10.7283C12.1145 30.7061 17.1472 34.8305 23.1415 34.8305C30.1973 34.8305 35.9294 29.1284 35.9294 22.1096C35.9294 21.6127 35.9044 21.1033 35.842 20.594ZM23.8783 22.8674V23.0785V25.5258H22.4047V23.0785V22.8674C21.5805 22.5692 20.9936 21.7866 20.9936 20.8673C20.9936 20.7803 21.0061 20.681 21.0185 20.594C21.1559 19.5381 22.0551 18.7306 23.1415 18.7306C24.228 18.7306 25.1396 19.5505 25.2645 20.594C25.277 20.681 25.2895 20.7679 25.2895 20.8673C25.2895 21.7866 24.7026 22.5692 23.8783 22.8674Z" fill="#2174EF"/>
<path d="M23.7658 27.1749L23.565 26.0977C23.5449 26.0977 23.5248 26.1176 23.5248 26.1176L23.7658 27.1749Z" fill="#2174EF"/>
<path d="M24.0261 22.2702C23.7651 22.0708 23.444 21.9512 23.1028 21.9512C22.882 21.9512 22.6612 22.011 22.4604 22.0907C22.6411 22.0309 22.8418 22.011 23.0425 22.011C23.4038 22.011 23.7451 22.1107 24.0261 22.2702Z" fill="#2174EF"/>
<path d="M7.26614 22.1307C7.26614 21.6721 7.30628 21.2335 7.32636 20.7949L7.20592 20.8149V20.7949L4.91769 21.2136L0 22.1307H0.0602166L4.93776 23.0278C5.37935 31.6804 12.0032 38.7381 20.4937 39.9343L19.9518 37.482C12.7258 36.0466 7.26614 29.7266 7.26614 22.1307Z" fill="#2174EF"/>
<path d="M23.0226 37.7798C22.561 37.7798 22.1194 37.7399 21.6577 37.72L21.6778 37.8396L22.1796 40.1124L23.0226 44.0001V43.9802L23.8657 40.1124C32.6372 39.7137 39.7829 33.0946 40.9672 24.6016L38.4983 25.0601C37.1133 32.2972 30.7103 37.7798 23.0226 37.7798Z" fill="#2174EF"/>
<path d="M23.0224 6.47947C23.5643 6.47947 24.0862 6.4994 24.6081 6.55921L24.5077 6.08073H24.5278L24.1063 4.1668C24.0862 4.1668 24.0862 4.1668 24.0661 4.1668L23.183 0L22.2797 4.1668C13.5082 4.52566 6.3223 11.1048 5.0979 19.578L7.56678 19.1194C8.99191 11.9222 15.3749 6.47947 23.0224 6.47947Z" fill="#2174EF"/>
<path d="M41.1089 21.2916C40.7075 12.6789 34.184 5.64119 25.7938 4.36523L26.3358 6.85734C33.4413 8.37254 38.7805 14.6526 38.7805 22.1489C38.7805 22.5676 38.7404 22.9663 38.7203 23.385L38.8809 23.3451L41.1089 22.9264L43.0158 22.5676L45.0631 22.1289L41.1089 21.2916Z" fill="#2174EF"/>
<path d="M58.7191 6.73436V10.9889H63.439V11.8561H58.7191V16.2461H63.439V17.1133H57.7642V5.86719H63.439V6.73436H58.7191Z" fill="#2174EF"/>
<path d="M68.2157 14.2137H69.0887C69.116 14.7557 69.2251 15.1892 69.4161 15.4873C69.5798 15.7854 69.8254 16.0022 70.18 16.1648C70.5074 16.3274 70.8894 16.4087 71.3259 16.4087C71.7625 16.4087 72.199 16.3274 72.581 16.1377C72.9629 15.9751 73.263 15.7312 73.4813 15.4331C73.7268 15.0808 73.8633 14.6202 73.8633 14.1053C73.8633 13.5633 73.6996 13.1297 73.3449 12.8316C72.9902 12.4793 72.3354 12.1542 71.3259 11.8561C70.4802 11.5851 69.9345 11.3683 69.689 11.2057C68.7341 10.6637 68.2702 9.82364 68.2702 8.71258C68.2702 7.73701 68.5976 6.97824 69.2797 6.38206C69.8254 5.89428 70.562 5.65039 71.4351 5.65039C72.4445 5.65039 73.2085 5.94848 73.7814 6.57176C74.2998 7.14084 74.5453 7.76411 74.5726 8.46869C74.5726 8.52289 74.5726 8.63128 74.5726 8.73968H73.6177C73.6177 8.1706 73.5086 7.73701 73.3176 7.43893C73.1266 7.14084 72.8811 6.92404 72.5537 6.76145C72.2263 6.59886 71.8443 6.51756 71.4351 6.51756C70.7803 6.51756 70.2346 6.73435 69.8254 7.14084C69.4161 7.54732 69.2251 8.0622 69.2251 8.68548C69.2251 9.30876 69.4434 9.76944 69.8527 10.0946C70.0709 10.2843 70.371 10.4469 70.7257 10.5824C71.0804 10.7179 71.4623 10.8534 71.9262 11.016C72.7174 11.287 73.263 11.5309 73.5904 11.7748C74.3816 12.3438 74.7909 13.1297 74.7909 14.1324C74.7909 14.6202 74.6817 15.1079 74.4635 15.5415C74.2452 15.9751 73.9451 16.3545 73.5631 16.6526C73.0175 17.0591 72.2808 17.2759 71.4351 17.2759C70.3437 17.2759 69.5253 16.9778 68.9796 16.3816C68.4885 15.8396 68.243 15.1892 68.243 14.4576C68.1884 14.4034 68.1884 14.3221 68.2157 14.2137Z" fill="#2174EF"/>
<path d="M88.1583 14.6751L88.8677 15.2984C88.4312 15.8946 87.9401 16.3281 87.449 16.6262C86.6578 17.0869 85.7574 17.3037 84.7752 17.3037C83.1928 17.3037 81.9105 16.7617 80.9556 15.6778C80.4918 15.1629 80.1098 14.5396 79.8643 13.8079C79.5914 13.0763 79.4823 12.3175 79.4823 11.5316C79.4823 10.6915 79.6187 9.90567 79.9188 9.1469C80.2189 8.38813 80.6282 7.73775 81.1466 7.19577C82.1015 6.2202 83.3292 5.73242 84.7752 5.73242C86.4122 5.73242 87.7764 6.3828 88.8677 7.71065L88.1583 8.27973C87.7218 7.81905 87.3671 7.46676 87.067 7.27707C86.3849 6.81638 85.621 6.59959 84.7752 6.59959C84.1477 6.59959 83.5475 6.73509 82.9745 7.00608C82.4016 7.27707 81.9378 7.68355 81.5285 8.17133C81.2011 8.60492 80.9283 9.1198 80.7373 9.68888C80.5463 10.2851 80.4645 10.8812 80.4645 11.5316C80.4645 12.3175 80.6009 13.0221 80.8465 13.6724C81.092 14.3228 81.474 14.8648 81.9378 15.2984C82.7563 16.0571 83.7385 16.4365 84.8298 16.4365C85.6756 16.4365 86.4122 16.2197 87.0943 15.7591C87.4217 15.4881 87.7764 15.1358 88.1583 14.6751Z" fill="#2174EF"/>
<path d="M100.379 14.1597H94.9223L93.7218 17.1135H92.7396L97.1867 5.89453H98.2508L102.534 17.0864H101.47L100.379 14.1597ZM100.024 13.2926L97.6778 7.14109L95.2769 13.2655H100.024V13.2926Z" fill="#2174EF"/>
<path d="M108.294 12.5877V17.0862H107.339V5.86719H110.04C111.377 5.86719 112.359 6.13818 113.041 6.65306C113.805 7.24924 114.16 8.11641 114.16 9.22746C114.16 9.79654 114.023 10.3385 113.778 10.8263C113.532 11.3141 113.178 11.6935 112.741 11.9916C112.168 12.371 111.322 12.5606 110.176 12.5606H108.294V12.5877ZM108.294 11.7206H110.013C110.64 11.7206 111.159 11.6664 111.568 11.5309C112.086 11.3683 112.468 11.0702 112.768 10.6366C113.041 10.2301 113.178 9.76945 113.178 9.22746C113.178 8.44159 112.877 7.81832 112.305 7.35763C111.895 7.03245 111.322 6.84275 110.613 6.76145C110.367 6.73436 110.067 6.73436 109.685 6.73436H108.267V11.7206H108.294Z" fill="#2174EF"/>
<path d="M120.243 6.73436V10.9889H124.963V11.8561H120.243V16.2461H124.963V17.1133H119.288V5.86719H124.963V6.73436H120.243Z" fill="#2174EF"/>
<path d="M60.5189 31.6517V38.0471H57.7633V26.8281H60.5189L64.6386 33.1422V26.8281H67.3942V38.0471H64.6386L60.5189 31.6517Z" fill="#2174EF"/>
<path d="M79.0445 36.3938H75.0339L74.5428 38.0198H71.6235L75.3613 26.8008H78.8535L82.564 38.0198H79.5629L79.0445 36.3938ZM78.3624 34.1988L77.0256 30.0256L75.716 34.1988H78.3624Z" fill="#2174EF"/>
<path d="M90.0647 33.6568L92.111 26.8008H94.9484L91.538 38.0198H88.5642L85.3175 26.8008H88.1276L90.0647 33.6568Z" fill="#2174EF"/>
<path d="M101.909 26.8008V38.0198H99.1531V26.8008H101.909Z" fill="#2174EF"/>
<path d="M112.85 31.6244H118.634C118.634 31.8683 118.634 32.0851 118.634 32.2477C118.634 34.0633 118.006 35.5267 116.751 36.6648C115.578 37.7217 114.214 38.2366 112.604 38.2366C111.786 38.2366 110.995 38.074 110.258 37.7759C109.521 37.4778 108.867 37.0442 108.294 36.4751C107.23 35.3912 106.684 34.0362 106.684 32.4103C106.684 30.7301 107.257 29.321 108.43 28.1828C109.549 27.0989 110.913 26.584 112.55 26.584C113.75 26.584 114.869 26.9092 115.906 27.5324C116.424 27.8576 116.888 28.2641 117.297 28.779L115.224 30.3778C114.514 29.5107 113.668 29.0771 112.632 29.0771C111.486 29.0771 110.613 29.5378 110.012 30.4591C109.631 31.0824 109.412 31.7328 109.412 32.4103C109.412 33.4671 109.794 34.3072 110.585 34.9576C111.186 35.4725 111.922 35.7163 112.741 35.7163C113.587 35.7163 114.296 35.4183 114.896 34.8492C115.196 34.5782 115.415 34.1988 115.578 33.7923H112.795V31.6244H112.85Z" fill="#2174EF"/>
<path d="M129.299 36.3938H125.288L124.797 38.0198H121.878L125.616 26.8008H129.108L132.819 38.0198H129.817L129.299 36.3938ZM128.617 34.1988L127.28 30.0256L125.971 34.1988H128.617Z" fill="#2174EF"/>
<path d="M140.704 29.0231V38.0471H137.949V29.0231H135.357V26.8281H143.296V29.0231H140.704Z" fill="#2174EF"/>
<path d="M152.901 26.584C153.719 26.584 154.51 26.7466 155.247 27.0718C155.984 27.397 156.638 27.8576 157.184 28.4538C158.194 29.5378 158.685 30.8385 158.685 32.329C158.685 33.1961 158.521 34.0091 158.166 34.795C157.812 35.5809 157.321 36.2583 156.666 36.8274C155.574 37.7759 154.292 38.2366 152.764 38.2366C151.891 38.2366 151.045 38.074 150.254 37.7217C149.463 37.3694 148.781 36.8816 148.208 36.2583C147.226 35.1744 146.735 33.9007 146.735 32.4103C146.735 31.6244 146.898 30.8385 147.226 30.1069C147.553 29.3752 148.017 28.7248 148.617 28.1286C149.763 27.0989 151.182 26.584 152.901 26.584ZM152.71 29.1042C151.782 29.1042 150.991 29.4565 150.363 30.1882C149.818 30.7843 149.572 31.5431 149.572 32.4374C149.572 33.4129 149.9 34.1988 150.527 34.8221C151.155 35.4454 151.891 35.7435 152.764 35.7435C153.692 35.7435 154.483 35.3912 155.111 34.6866C155.656 34.0904 155.956 33.3045 155.956 32.4103C155.956 31.4076 155.602 30.5946 154.92 29.9443C154.292 29.4023 153.555 29.1042 152.71 29.1042Z" fill="#2174EF"/>
<path d="M166.271 33.6839V38.0198H163.515V26.8008H167.171C168.781 26.8008 169.954 27.126 170.663 27.8034C171.345 28.4538 171.7 29.3481 171.7 30.4592C171.7 32.1935 170.963 33.3316 169.49 33.8736L172 37.9927H168.726L166.271 33.6839ZM166.271 32.1664H167.144C167.662 32.1664 168.044 32.058 168.344 31.8412C168.726 31.5702 168.944 31.1637 168.944 30.6217C168.944 30.1882 168.808 29.8088 168.535 29.5378C168.235 29.2126 167.853 29.0771 167.335 29.0771H166.271V32.1664Z" fill="#2174EF"/>
</svg>
