<svg width="163" height="81" viewBox="0 0 163 81" fill="none" xmlns="http://www.w3.org/2000/svg">
<path fill-rule="evenodd" clip-rule="evenodd" d="M44.1334 4.53764C54.4706 3.47706 65.824 3.37375 73.5636 10.2736C81.5728 17.4138 84.5024 28.9103 83.4122 39.5549C82.413 49.3119 75.3322 56.7345 68.1206 63.4207C61.2498 69.7909 53.5148 75.5384 44.1334 75.972C34.3514 76.4241 25.2975 72.0243 17.809 65.7461C9.48887 58.7707 0.177311 50.3677 0.695594 39.5549C1.20522 28.9227 2.61625 21.8896 10.9286 15.1886C18.0494 9.44822 35.0169 5.47297 44.1334 4.53764Z" fill="#F3F7FD"/>
<rect x="29.5001" y="43.8633" width="7.14894" height="8.34043" fill="#FF3333"/>
<rect x="37.9255" y="36.627" width="7.14894" height="15.5745" fill="#0077FF"/>
<rect x="46.3513" y="28.2031" width="7.14894" height="24" fill="#FFCC00"/>
<path d="M143.961 13.2536C140.043 9.76012 136.413 6.67274 132.367 4.63394C128.242 2.55491 123.747 1.59183 118.12 2.16914C115.994 2.38728 113.481 2.50303 110.717 2.63038C110.56 2.63758 110.403 2.64482 110.245 2.65212C107.322 2.78719 104.162 2.94111 101.055 3.25165C94.962 3.86064 88.5709 5.10514 84.448 8.42882C75.2807 15.819 72.7196 28.7605 72.1982 39.6371C71.9043 45.7685 74.4124 51.1046 77.9322 55.7127C81.4378 60.3019 86.075 64.334 90.2966 67.8732C92.1126 69.3957 93.5015 70.7603 94.7513 71.9881L94.7904 72.0265L94.8112 72.047C96.0389 73.2531 97.2088 74.4025 98.4843 75.3329C101.243 77.3452 104.312 78.2072 109.584 77.9635C119.579 77.5016 132.141 72.3045 139.474 65.5065C140.941 64.1459 142.59 62.7534 144.336 61.2781C144.719 60.9548 145.107 60.6275 145.498 60.2956C147.652 58.4693 149.897 56.527 151.952 54.4699C156.015 50.4042 159.637 45.6071 160.218 39.9366C160.838 33.8826 158.716 28.9566 155.49 24.697C152.67 20.9738 148.901 17.6341 145.291 14.4347C144.845 14.039 144.401 13.6455 143.961 13.2536Z" fill="#F3F7FD" stroke="white" stroke-width="4"/>
<path d="M120.961 30.1544V48.7053C120.961 50.781 122.395 51.9377 123.912 51.9377C125.318 51.9377 126.864 50.9539 126.864 48.7053V30.2949C126.864 28.3921 125.458 27.2031 123.912 27.2031C122.366 27.2031 120.961 28.5143 120.961 30.1544Z" fill="#F9AB00"/>
<path d="M113.227 39.5685V48.7034C113.227 50.7791 114.66 51.9357 116.178 51.9357C117.584 51.9357 119.13 50.952 119.13 48.7034V39.709C119.13 37.8061 117.724 36.6172 116.178 36.6172C114.632 36.6172 113.227 37.9284 113.227 39.5685Z" fill="#E37400"/>
<path d="M108.451 51.9397C110.081 51.9397 111.403 50.6183 111.403 48.9884C111.403 47.3584 110.081 46.0371 108.451 46.0371C106.821 46.0371 105.5 47.3584 105.5 48.9884C105.5 50.6183 106.821 51.9397 108.451 51.9397Z" fill="#E37400"/>
</svg>
