<svg width="33" height="33" viewBox="0 0 33 33" fill="none" xmlns="http://www.w3.org/2000/svg">
<g clip-path="url(#clip0)">
<path d="M15.8918 12.2353C19.1401 12.2353 21.7734 9.60871 21.7734 6.36863C21.7734 3.12856 19.1401 0.501953 15.8918 0.501953C12.6435 0.501953 10.0102 3.12856 10.0102 6.36863C10.0102 9.60871 12.6435 12.2353 15.8918 12.2353Z" fill="#2174EF"/>
<path d="M13.5636 27.3973C12.408 25.091 13.0957 21.9566 15.1342 20.262C16.078 19.4856 17.2647 19.0636 18.4881 19.0693C19.7432 19.0996 20.9683 19.4581 22.0408 20.109C22.864 19.6227 23.7705 19.2928 24.7143 19.1359V17.8359C24.7131 16.7754 24.2902 15.7587 23.5384 15.0088C22.7866 14.2589 21.7673 13.8371 20.7041 13.8359H10.0102C8.94698 13.8371 7.92764 14.2589 7.17583 15.0088C6.42402 15.7587 6.00115 16.7754 6 17.8359V28.5026C6 28.8563 6.14083 29.1954 6.39152 29.4454C6.64221 29.6955 6.98221 29.836 7.33673 29.836H15.5242C14.7327 29.1437 14.0691 28.3183 13.5636 27.3973Z" fill="#2174EF"/>
<path d="M28.0922 21.2854C27.3349 20.6544 25.268 19.4798 22.0408 21.6821C18.8129 19.4794 16.7463 20.6551 15.9894 21.2854C14.4351 22.5791 13.884 25.0521 14.7593 26.8008C16.1628 29.6008 21.5128 32.3165 21.7397 32.4308C21.833 32.4777 21.936 32.5021 22.0404 32.5021C22.1449 32.5021 22.2479 32.4777 22.3412 32.4308C22.5681 32.3165 27.918 29.6004 29.3216 26.8008C30.1982 25.0531 29.6464 22.5791 28.0922 21.2854ZM26.051 25.8358C25.7866 25.8358 25.5281 25.7576 25.3083 25.6111C25.0885 25.4646 24.9172 25.2563 24.816 25.0127C24.7148 24.769 24.6883 24.501 24.7399 24.2423C24.7915 23.9837 24.9188 23.7461 25.1058 23.5596C25.2927 23.3732 25.5309 23.2462 25.7902 23.1947C26.0495 23.1433 26.3183 23.1697 26.5625 23.2706C26.8068 23.3715 27.0155 23.5424 27.1624 23.7617C27.3093 23.9809 27.3877 24.2387 27.3877 24.5024C27.3877 24.8561 27.2469 25.1952 26.9962 25.4452C26.7455 25.6953 26.4055 25.8358 26.051 25.8358Z" fill="#2174EF"/>
</g>
<defs>
<clipPath id="clip0">
<rect width="32" height="32" fill="white" transform="translate(0.666687 0.501953)"/>
</clipPath>
</defs>
</svg>
