<svg width="490" height="488" viewBox="0 0 490 488" fill="none" xmlns="http://www.w3.org/2000/svg">
<path fill-rule="evenodd" clip-rule="evenodd" d="M292.58 478.38C350.857 478.38 398.1 473.911 398.1 468.398C398.1 462.885 350.857 458.416 292.58 458.416C246.084 458.416 206.613 461.261 192.553 465.211C181.021 463.059 159.43 461.611 134.698 461.611C98.4117 461.611 68.888 464.728 67.9707 468.611C60.9028 468.226 52.1911 467.998 42.7676 467.998C19.1477 467.998 0 469.428 0 471.192C0 472.956 19.1477 474.386 42.7676 474.386C58.3502 474.386 71.9863 473.764 79.4622 472.834C91.4719 474.735 111.73 475.984 134.698 475.984C160.736 475.984 183.292 474.379 194.295 472.038C209.672 475.75 247.88 478.38 292.58 478.38Z" fill="#508BE1" fill-opacity="0.13"/>
<path d="M231.22 464.385C234.08 466.448 247.505 466.534 253.86 466.319C254.919 461.053 254.178 451.037 242.738 453.1C228.439 455.679 227.645 461.805 231.22 464.385Z" fill="#104386"/>
<path d="M334.546 462.408C331.687 464.472 312.922 468.212 306.567 467.997C305.508 462.731 310.01 453.101 321.634 453.102C338.144 453.102 338.121 459.829 334.546 462.408Z" fill="#104386"/>
<g filter="url(#filter0_d)">
<rect x="81.2563" y="63.1348" width="289.381" height="295.462" rx="20" fill="white"/>
</g>
<rect x="113.29" y="208.471" width="111.164" height="50.6238" rx="7" fill="#D5E4FF"/>
<rect x="113.29" y="211.736" width="111.164" height="50.6238" rx="7" fill="#F2F5F9"/>
<rect x="282.704" y="126.646" width="55.5819" height="19.5963" rx="9.79815" fill="#F2F5F9"/>
<rect x="282.704" y="126.646" width="19.6172" height="19.5963" rx="9.79815" fill="#2174EF"/>
<rect x="113.289" y="93.9863" width="52.3124" height="52.2568" rx="17" fill="#F2F5F9"/>
<rect x="109.748" y="87.1875" width="21.791" height="21.7614" rx="10.8807" fill="#78BB8B" stroke="white" stroke-width="6"/>
<rect x="113.289" y="171.738" width="225.597" height="9.79816" rx="4" fill="#D5E4FF"/>
<rect x="113.289" y="174.207" width="225.597" height="9.79814" rx="4" fill="#F2F5F9"/>
<rect x="165.604" y="158.961" width="37.5995" height="37.5596" rx="18.7798" fill="#2174EF"/>
<path d="M65.2561 347.054C67.6694 337.944 71.1499 343.944 80.9429 333.696L88.0335 334.404L79.5296 341.492C77.9196 343.4 79.1384 355.727 76.6076 350.055C74.2457 344.762 71.3147 347.489 66.9396 355.668C62.5644 363.848 62.0778 359.051 65.2561 347.054Z" fill="#F5C583"/>
<path d="M181.913 195.372C184.363 198.441 182.733 208.22 181.913 209.933L187.655 204.793C186.014 200.511 191.756 193.659 191.756 187.663C191.756 179.766 187.655 184.237 186.014 182.524C184.374 180.811 187.655 178.242 186.014 173.103C184.374 167.963 181.596 191.806 180.273 187.663C177.812 179.955 173.71 185.094 181.913 195.372Z" fill="#F5C583"/>
<path d="M130.19 471.985C125.914 470.585 129.017 462.763 130.19 460.746L138.108 458.152L146.025 463.34C152.184 465.933 154.665 464.445 155.703 468.527C156.583 471.985 150.718 472.85 148.665 472.85C143.387 472.85 132.83 472.85 130.19 471.985Z" fill="#2174EF"/>
<path d="M131.417 461.197L129.638 427.123H139.418C139.715 437.345 137.64 457.79 136.751 462.049C136.361 463.917 132.306 462.901 131.417 461.197Z" fill="#F5C583"/>
<path d="M80.5938 422.225L56.2125 445.088H51.1681L71.3457 417.326L80.5938 422.225Z" fill="#F5C583"/>
<rect x="113.289" y="293.916" width="225.597" height="9.79816" rx="4" fill="#A1BFF3"/>
<rect x="113.289" y="296.385" width="225.597" height="9.79817" rx="4" fill="#B8CDF3"/>
<rect x="272.661" y="278.742" width="42.5038" height="42.4586" rx="12" fill="#B8CDF3"/>
<rect x="269.917" y="278.744" width="42.5038" height="42.4586" rx="12" fill="#2174EF"/>
<rect x="285.902" y="291.807" width="11.4434" height="16.3303" rx="4" fill="white"/>
<path d="M140.837 437.449C146.261 417.785 147.617 362.577 147.617 337.431L104.394 334.041C98.7437 348.733 86.4264 380.32 82.3583 389.135C77.2731 400.154 58.6324 412.021 57.7849 413.716C56.9373 415.411 62.865 428.125 75.5778 428.125C85.6644 428.125 87.4149 425.624 99.0178 409.046L99.3085 408.63C110.474 392.678 109.648 381.337 117.106 384.05C124.565 386.762 121.627 415.129 117.106 435.754C123.209 439.822 135.469 438.579 140.837 437.449Z" fill="#104386"/>
<path d="M99.2836 304.124C107.414 282.287 112.834 273.416 114.527 271.71C124.125 268.014 144.676 260.11 150.096 258.062C156.871 255.504 167.881 243.562 174.656 229.061C180.076 217.46 181.431 208.589 181.431 202.619C183.972 203.472 185.665 203.472 188.206 201.766C190.747 248.68 175.503 263.18 166.187 271.71C158.017 279.191 157.718 281.946 157.718 304.124C157.718 321.866 156.025 336.537 155.178 341.655C141.628 354.449 103.518 347.626 100.13 339.096C98.3513 334.616 107.752 327.154 106.059 318.624C104.704 311.8 87.4273 342.508 83.1929 337.39L78.9585 333.125C84.0398 329.713 97.3076 310.094 99.2836 304.124Z" fill="#7CB1FD"/>
<path d="M233.58 460.281C238.812 461.588 245.024 463.547 247.476 464.364C247.476 461.37 245.514 454.239 237.667 449.667C227.859 443.951 227.041 458.648 233.58 460.281Z" fill="#DEEDEA"/>
<path d="M308.155 462.985C302.492 464.051 295.767 465.65 293.112 466.316C293.112 463.873 295.236 458.054 303.731 454.323C314.349 449.659 315.234 461.652 308.155 462.985Z" fill="#DEEDEA"/>
<path d="M223.014 452.676C241.072 474.478 249.151 472.818 275.288 472.818C306.176 472.818 306.176 468.079 320.432 456.23C334.689 444.382 347.964 423.423 338.253 413.576C328.261 403.444 313.548 413.576 298.018 424.673C277.583 432.839 250.339 432.534 234.895 413.576C219.451 394.618 208.758 405.282 205.194 408.837C201.63 412.391 200.442 425.425 223.014 452.676Z" fill="#2174EF"/>
<path d="M313.548 313.629C314.856 316.242 314.093 320.161 313.548 321.794L320.087 324.244C320.36 321.794 321.232 316.405 322.54 314.446C324.174 311.996 329.896 307.914 328.261 302.198C326.953 297.625 322.267 294.849 320.087 294.033C317.472 287.5 316.818 290.222 316.818 292.4L317.635 298.932C317.635 301.653 316.818 306.444 313.548 303.831C310.279 301.218 310.007 303.831 310.279 305.464C310.824 307.097 312.241 311.016 313.548 313.629Z" fill="#FFDBB9"/>
<path d="M256.331 312.813C254.37 314.773 254.434 319.077 254.707 320.166L249.803 320.982C248.985 312.817 243.263 308.734 242.446 299.751C241.928 294.061 262.881 284.235 254.707 298.116C252.718 301.494 254.705 306.285 255.523 307.102C259.446 301.876 260.972 302.474 261.244 303.835C260.699 304.923 258.293 310.853 256.331 312.813Z" fill="#FFDBB9"/>
<path d="M256.33 316.078C253.879 317.711 251.425 317.711 248.973 317.711C220.364 357.72 249.789 391.197 252.243 391.197C252.243 414.06 244.886 422.225 245.704 429.573C246.521 436.922 259.599 441.821 272.677 441.821C285.756 441.821 298.016 436.106 299.651 431.206C300.959 427.287 299.106 405.622 298.016 395.28C305.373 388.203 320.739 371.928 323.355 363.436C325.971 354.944 324.445 330.503 323.355 319.344C320.086 321.957 314.909 318.8 311.912 317.711C311.912 326.856 309.187 344.928 308.642 352.005C306.19 362.075 293.964 382.229 269.406 372.418C253.057 365.885 245.702 350.372 256.33 316.078Z" fill="#F7A349"/>
<path d="M272.498 365.068C272.953 370.359 271.172 376.09 270.224 378.294C276.592 381.601 281.596 378.57 283.302 376.641C280.118 372.673 279.322 367.273 279.322 365.068H272.498Z" fill="#FFDBB9"/>
<path fill-rule="evenodd" clip-rule="evenodd" d="M264.994 358.666C264.389 358.461 263.319 357.784 262.053 356.097C262.679 355.68 264.135 354.157 265.187 351.303C265.231 351.12 265.278 350.938 265.329 350.758C264.456 349.182 263.544 345.359 266.682 342.225C270.649 338.261 279.246 338.261 282.552 340.243C285.197 341.828 286.74 342.225 287.181 342.225C287.401 343.326 287.344 344.945 285.757 345.473C287.52 347.015 290.752 351.605 289.165 354.776C288.958 355.189 288.733 355.577 288.498 355.941C288.279 363.733 283.037 369.967 276.602 369.967C270.937 369.967 266.197 365.137 264.994 358.666Z" fill="#386EBC"/>
<path fill-rule="evenodd" clip-rule="evenodd" d="M264.383 358.399C263.768 358.16 261.888 356.426 260.415 354.464C261.077 354.024 262.664 352.35 263.722 349.179C262.84 347.638 261.87 343.763 265.044 340.592C269.012 336.629 277.609 336.629 280.915 338.61C283.56 340.196 287.087 341.168 287.528 341.168C287.748 342.269 288.206 344.657 286.572 346.29C288.335 347.832 289.115 349.972 287.528 353.143C287.189 353.819 286.805 354.427 286.399 354.969C285.627 362.521 280.847 368.335 275.064 368.335C270.195 368.335 266.035 364.211 264.383 358.399Z" fill="#2174EF"/>
<path fill-rule="evenodd" clip-rule="evenodd" d="M150.641 256.181C151.504 254.237 151.995 252 151.995 249.619C153.099 240.652 147.133 236.059 141.135 236.059C135.137 236.059 129.732 239.96 129.732 247.45C129.732 247.892 129.75 248.336 129.787 248.781C129.775 248.784 129.763 248.786 129.751 248.788C130.294 252.586 130.274 253.28 125.062 258.921C121.548 262.724 122.598 266.79 123.509 270.321C124.288 273.338 124.966 275.964 122.609 277.701C114.627 283.586 113.927 300.027 124.244 302.197C134.561 304.366 146.313 299.747 148.756 297.297C153.001 293.041 150.385 284.047 148.756 279.165C148.049 277.046 149.406 275.562 150.744 274.098C151.804 272.938 152.852 271.791 152.852 270.353C152.852 268.71 152.096 267.327 151.308 265.886C150.015 263.521 148.637 261.001 150.385 256.925C150.494 256.671 150.579 256.423 150.641 256.181Z" fill="#749FDE"/>
<path fill-rule="evenodd" clip-rule="evenodd" d="M147.859 252.918C148.721 250.973 149.213 248.736 149.213 246.356C150.317 237.388 144.35 232.795 138.352 232.795C132.355 232.795 126.949 236.697 126.949 244.186C126.949 244.628 126.968 245.072 127.005 245.518C126.993 245.52 126.981 245.522 126.969 245.525C127.512 249.322 127.492 250.016 122.279 255.658C118.766 259.46 119.815 263.526 120.727 267.057C121.506 270.074 122.183 272.7 119.827 274.437C111.845 280.322 111.144 296.763 121.462 298.933C131.779 301.103 143.531 296.483 145.974 294.034C150.219 289.777 147.603 280.783 145.974 275.901C145.267 273.783 146.624 272.298 147.962 270.834C149.022 269.674 150.07 268.528 150.07 267.089C150.07 265.446 149.314 264.063 148.526 262.623C147.232 260.257 145.854 257.737 147.603 253.661C147.712 253.407 147.797 253.159 147.859 252.918Z" fill="#FF9255"/>
<path d="M41.0449 449.345C37.564 452.78 37.6944 459.169 38.7304 460.601C46.8114 464.895 54.7197 451.185 57.2061 445.051C59.6925 438.917 52.2333 438.917 49.747 443.211C47.2606 447.505 45.3961 445.051 41.0449 449.345Z" fill="#2174EF"/>
<rect x="332.35" y="208.471" width="6.53906" height="53.818" rx="3.26953" fill="#F2F5F9"/>
<rect x="307.826" y="225.832" width="6.53897" height="36.4574" rx="3.26949" fill="#2174EF"/>
<rect x="283.304" y="244.928" width="6.539" height="17.3606" rx="3.2695" fill="#2174EF"/>
<rect x="258.783" y="253.609" width="6.53903" height="8.68036" rx="3.26952" fill="#2174EF"/>
<rect x="282.704" y="94.8574" width="55.5819" height="19.5963" rx="9.79815" fill="#F2F5F9"/>
<rect x="318.669" y="94.8574" width="19.6172" height="19.5963" rx="9.79816" fill="#2174EF"/>
<path d="M137.895 396.527C137.575 383.112 129.235 382.153 125.105 383.351C139.494 387.744 125.105 431.663 126.704 435.256C127.983 438.131 132.832 438.318 135.097 438.051C136.163 429.8 138.215 409.943 137.895 396.527Z" fill="#1B3D6A"/>
<path d="M338.136 434.857C314.794 466.16 273.519 472.921 255.799 472.389C260.862 473.321 275.784 474.465 294.969 471.591C314.155 468.716 331.741 445.904 338.136 434.857Z" fill="#3D79D1"/>
<defs>
<filter id="filter0_d" x="8.25635" y="0.134766" width="481.381" height="487.462" filterUnits="userSpaceOnUse" color-interpolation-filters="sRGB">
<feFlood flood-opacity="0" result="BackgroundImageFix"/>
<feColorMatrix in="SourceAlpha" type="matrix" values="0 0 0 0 0 0 0 0 0 0 0 0 0 0 0 0 0 0 127 0"/>
<feOffset dx="23" dy="33"/>
<feGaussianBlur stdDeviation="48"/>
<feColorMatrix type="matrix" values="0 0 0 0 0.819608 0 0 0 0 0.882353 0 0 0 0 1 0 0 0 1 0"/>
<feBlend mode="normal" in2="BackgroundImageFix" result="effect1_dropShadow"/>
<feBlend mode="normal" in="SourceGraphic" in2="effect1_dropShadow" result="shape"/>
</filter>
</defs>
</svg>
