<svg width="20" height="20" viewBox="0 0 20 20" fill="none" xmlns="http://www.w3.org/2000/svg">
<path fill-rule="evenodd" clip-rule="evenodd" d="M20 10C20 15.5228 15.5228 20 10 20C4.47715 20 0 15.5228 0 10C0 4.47715 4.47715 0 10 0C15.5228 0 20 4.47715 20 10ZM17.7777 9.9999C17.7777 14.2954 14.2954 17.7777 9.9999 17.7777C8.40592 17.7777 6.92393 17.2982 5.69031 16.4756L16.4756 5.69031C17.2982 6.92393 17.7777 8.40592 17.7777 9.9999ZM14.9901 4.03378C13.6395 2.90291 11.8992 2.22212 9.9999 2.22212C5.70435 2.22212 2.22212 5.70435 2.22212 9.9999C2.22212 11.8992 2.90291 13.6395 4.03378 14.9901L14.9901 4.03378Z" fill="#2174EF"/>
</svg>
