<svg width="32" height="21" viewBox="0 0 32 21" fill="none" xmlns="http://www.w3.org/2000/svg">
<path fill-rule="evenodd" clip-rule="evenodd" d="M1.00692 0.0351562H9.56186V20.9704H1.00692C0.450849 20.9704 0 20.4757 0 19.8652V14.2629C0 13.6525 0.450849 13.1577 1.00692 13.1577C2.34065 13.1577 3.42574 11.9668 3.42574 10.5028C3.42574 9.03885 2.34065 7.84786 1.00692 7.84786C0.450849 7.84786 0 7.35307 0 6.74265V1.14036C0 0.529943 0.450849 0.0351562 1.00692 0.0351562ZM32 6.74265C32 7.35307 31.5492 7.84785 30.9931 7.84785C29.6594 7.84785 28.5743 9.03885 28.5743 10.5028C28.5743 11.9668 29.6594 13.1577 30.9931 13.1577C31.5492 13.1577 32 13.6525 32 14.263V19.8653C32 20.4757 31.5492 20.9705 30.9931 20.9705H11.5748V0.0351562H30.9931C31.5492 0.0351562 32 0.529943 32 1.14036V6.74265Z" fill="#2174EF"/>
</svg>
