<svg width="20" height="18" viewBox="0 0 20 18" fill="none" xmlns="http://www.w3.org/2000/svg">
<path fill-rule="evenodd" clip-rule="evenodd" d="M12.9785 4.80747C12.7251 4.38105 12.2617 4.11908 11.7606 4.11908C11.2596 4.11908 10.7962 4.38105 10.5428 4.80747L9.70983 6.20913L8.10125 6.55753C7.61189 6.66353 7.21613 7.01746 7.06131 7.48756C6.90649 7.95766 7.0158 8.4735 7.34856 8.84303L8.44235 10.0577L8.28113 11.6747C8.23208 12.1666 8.45097 12.6473 8.8563 12.9379C9.26162 13.2284 9.79267 13.2853 10.2517 13.0872L11.7606 12.4363L13.2696 13.0872C13.7286 13.2853 14.2597 13.2284 14.665 12.9379C15.0703 12.6473 15.2892 12.1666 15.2402 11.6747L15.0789 10.0577L16.1727 8.84303C16.5055 8.4735 16.6148 7.95766 16.46 7.48756C16.3052 7.01746 15.9094 6.66353 15.42 6.55753L13.8115 6.20913L12.9785 4.80747ZM8.40398 7.91797L10.6155 7.43897L11.7606 5.51191L12.9058 7.43897L15.1173 7.91797L13.6135 9.58796L13.8352 11.8111L11.7606 10.9161L9.68611 11.8111L9.90776 9.58796L8.40398 7.91797Z" fill="#2174EF"/>
<path fill-rule="evenodd" clip-rule="evenodd" d="M0 17.1189H17.6471C18.9466 17.1189 20 16.0795 20 14.7975V3.19053C20 1.90846 18.9466 0.869141 17.6471 0.869141H2.35294C1.05345 0.869141 0 1.90846 0 3.19053V17.1189ZM17.6471 2.37804H5.41567V15.61H17.6471C18.1019 15.61 18.4706 15.2462 18.4706 14.7975V3.19053C18.4706 2.74181 18.1019 2.37804 17.6471 2.37804ZM2.35294 2.37804H4.00391V15.61H1.52941V3.19053C1.52941 2.74181 1.89812 2.37804 2.35294 2.37804Z" fill="#2174EF"/>
</svg>
