<svg width="20" height="18" viewBox="0 0 20 18" fill="none" xmlns="http://www.w3.org/2000/svg">
<path d="M9.375 6.22461H3.125C2.80141 6.22461 2.53906 6.48695 2.53906 6.81055C2.53906 7.13414 2.80141 7.39648 3.125 7.39648H9.375C9.69859 7.39648 9.96094 7.13414 9.96094 6.81055C9.96094 6.48695 9.69859 6.22461 9.375 6.22461Z" fill="#2174EF"/>
<path fill-rule="evenodd" clip-rule="evenodd" d="M12.7219 6.22461H16.0281C16.8182 6.22461 17.4609 6.86738 17.4609 7.65742V8.46363C17.4609 9.25371 16.8182 9.89648 16.0281 9.89648H12.7219C11.9318 9.89648 11.2891 9.25371 11.2891 8.46367V7.65746C11.2891 6.86738 11.9318 6.22461 12.7219 6.22461ZM16.0281 8.72461C16.172 8.72461 16.2891 8.60754 16.2891 8.46363V7.65742C16.2891 7.51351 16.172 7.39644 16.0281 7.39644H12.7219C12.578 7.39644 12.4609 7.51351 12.4609 7.65742V8.46363C12.4609 8.60754 12.578 8.72461 12.7219 8.72461H16.0281Z" fill="#2174EF"/>
<path fill-rule="evenodd" clip-rule="evenodd" d="M17.3711 0.599609H2.62891C1.1793 0.599609 0 1.77891 0 3.22852V11.6426C0 13.062 1.13098 14.2216 2.53906 14.2692V16.375C2.53906 16.9383 2.99727 17.3965 3.56051 17.3965H8.31449C8.87773 17.3965 9.33594 16.9383 9.33594 16.375V14.2715H17.3711C18.8207 14.2715 20 13.0922 20 11.6426V3.22852C20 1.77891 18.8207 0.599609 17.3711 0.599609ZM2.62891 1.77148H17.3711C18.1745 1.77148 18.8281 2.42508 18.8281 3.22852V3.72461H1.17188V3.22852C1.17188 2.42508 1.82547 1.77148 2.62891 1.77148ZM7.22656 11.5371H4.64844V10.873C4.64844 10.3346 5.08652 9.89648 5.625 9.89648H6.25C6.78848 9.89648 7.22656 10.3346 7.22656 10.873V11.5371ZM8.16406 16.2246H3.71094V12.709H8.16406V16.2246ZM17.3711 13.0996H9.33594V12.5586C9.33594 12.0236 8.9225 11.5837 8.39844 11.5408V10.873C8.39844 9.6884 7.43465 8.72461 6.25 8.72461H5.625C4.44035 8.72461 3.47656 9.6884 3.47656 10.873V11.5409C2.9525 11.5837 2.53906 12.0236 2.53906 12.5586V13.0966C1.77734 13.05 1.17188 12.4158 1.17188 11.6426V4.89648H18.8281V11.6426C18.8281 12.446 18.1745 13.0996 17.3711 13.0996Z" fill="#2174EF"/>
</svg>
