<svg width="157" height="79" viewBox="0 0 157 79" fill="none" xmlns="http://www.w3.org/2000/svg">
<path fill-rule="evenodd" clip-rule="evenodd" d="M43.9195 1.13304C54.2567 0.0724567 58.5466 5.69196 66.2861 12.5918C74.2954 19.732 81.5524 25.5057 80.4623 36.1503C79.463 45.9073 71.6739 52.4056 64.4623 59.0918C57.5915 65.462 53.3008 72.1338 43.9195 72.5674C34.1374 73.0195 26.7762 68.37 19.2877 62.0918C10.9676 55.1164 0.235207 51.3099 0.75349 40.4971C1.26312 29.8649 4.9738 13.57 13.2861 6.869C20.4069 1.12859 34.803 2.06837 43.9195 1.13304Z" fill="#F3F7FD"/>
<path fill-rule="evenodd" clip-rule="evenodd" d="M34.3008 28.5921L28.4341 42.5898H24.606L21.7192 31.4186C21.5437 30.7303 21.3913 30.4787 20.8582 30.189C19.9887 29.7169 18.5511 29.2735 17.286 28.9986L17.3726 28.5921H23.5338C24.319 28.5921 25.0254 29.1147 25.2036 30.0192L26.7285 38.1196L30.4967 28.5921H34.3008ZM49.2994 38.0195C49.315 34.3251 44.19 34.1215 44.2257 32.4712C44.2362 31.9687 44.715 31.4351 45.7613 31.2982C46.281 31.2305 47.7096 31.1784 49.3321 31.925L49.9674 28.9568C49.0961 28.6403 47.9747 28.3359 46.5801 28.3359C43.0013 28.3359 40.4819 30.239 40.4607 32.9636C40.4383 34.9787 42.2589 36.1025 43.6313 36.7727C45.0415 37.459 45.5157 37.8984 45.5095 38.512C45.5004 39.4516 44.3841 39.8655 43.3432 39.8821C41.5221 39.9107 40.4657 39.3906 39.6234 38.998L38.9673 42.0649C39.8131 42.4538 41.3747 42.7914 42.9947 42.8087C46.7981 42.8087 49.2869 40.9292 49.2994 38.0195ZM58.7497 42.5898H62.099L59.1763 28.5921H56.0845C55.3901 28.5921 54.8039 28.9963 54.5432 29.619L49.1107 42.5898H52.9127L53.668 40.4994H58.3135L58.7497 42.5898ZM54.7095 37.6304L56.616 32.374L57.7131 37.6304H54.7095ZM39.4751 28.5921L36.4804 42.5898H32.8596L35.8545 28.5921H39.4751Z" fill="#092C85"/>
<path d="M142.87 10.0036C134.403 2.45474 124.608 1.40382 113.856 2.507C111.65 2.73331 109.19 2.76962 106.549 2.78041C106.184 2.78191 105.814 2.78291 105.443 2.78392C103.161 2.79011 100.774 2.7966 98.4351 2.91848C93.0573 3.19873 87.428 4.09821 83.2838 7.43903C74.1064 14.8374 72.5044 25.3808 71.9843 36.2312C71.7092 41.9709 72.504 46.9668 74.5453 51.4932C76.5844 56.0149 79.8094 59.9393 84.2042 63.6238C84.4881 63.8618 84.7721 64.1005 85.0564 64.3394C92.2382 70.375 99.6118 76.5717 110.055 76.089C115.204 75.851 120.729 73.9809 125.794 71.4072C130.876 68.8247 135.631 65.4649 139.26 62.1006C141 60.4875 142.658 59.2499 144.227 58.1246C144.485 57.9393 144.744 57.7549 145.003 57.5709C146.28 56.6622 147.546 55.7614 148.661 54.7917C150.042 53.5915 151.276 52.2195 152.225 50.4094C153.171 48.6051 153.781 46.4676 154.054 43.7949C154.637 38.1115 154.009 31.6345 152.182 25.6271C150.36 19.6319 147.294 13.9476 142.87 10.0036Z" fill="#F3F7FD" stroke="white" stroke-width="4"/>
<path d="M118.581 27.9453H107.993V45.2391H118.581V27.9453Z" fill="#FF5F00"/>
<path d="M109.084 36.5937C109.082 34.9285 109.46 33.2848 110.188 31.787C110.915 30.2892 111.974 28.9765 113.284 27.9484C111.662 26.6734 109.713 25.8805 107.662 25.6604C105.61 25.4403 103.538 25.8019 101.682 26.7038C99.8259 27.6057 98.2611 29.0116 97.1664 30.7608C96.0717 32.5099 95.4911 34.5318 95.4911 36.5953C95.4911 38.6588 96.0717 40.6806 97.1664 42.4298C98.2611 44.1789 99.8259 45.5848 101.682 46.4867C103.538 47.3886 105.61 47.7502 107.662 47.5301C109.713 47.3101 111.662 46.5172 113.284 45.2421C111.974 44.2137 110.915 42.9005 110.187 41.4022C109.459 39.9038 109.082 38.2595 109.084 36.5937Z" fill="#EB001B"/>
<path d="M131.079 36.5922C131.079 38.6558 130.498 40.6778 129.403 42.4271C128.308 44.1763 126.743 45.5821 124.887 46.4839C123.031 47.3857 120.959 47.7471 118.907 47.5267C116.855 47.3063 114.906 46.513 113.284 45.2376C114.594 44.2085 115.652 42.8955 116.38 41.3976C117.108 39.8997 117.486 38.2561 117.486 36.5907C117.486 34.9253 117.108 33.2816 116.38 31.7838C115.652 30.2859 114.594 28.9729 113.284 27.9438C114.906 26.6684 116.855 25.8751 118.907 25.6547C120.959 25.4343 123.031 25.7957 124.887 26.6974C126.743 27.5992 128.308 29.0051 129.403 30.7543C130.498 32.5035 131.079 34.5255 131.079 36.5892V36.5922Z" fill="#F79E1B"/>
</svg>
